<?xml version="1.0" encoding="UTF-8"?>
<svg width="32px" height="32px" viewBox="0 0 32 32" version="1.1" xmlns="http://www.w3.org/2000/svg" xmlns:xlink="http://www.w3.org/1999/xlink">
    <title>symbol.icon</title>
    <g id="symbol.icon" stroke="none" stroke-width="1" fill="none" fill-rule="evenodd">
        <g id="Guides">
            <line x1="3.33066907e-16" y1="31" x2="32" y2="31" id="Baseline-L"></line>
            <line x1="3.5831267e-16" y1="31" x2="32" y2="31" id="Capline-L"></line>
            <line x1="3.33066907e-16" y1="1" x2="32" y2="1" id="Baseline-S"></line>
            <line x1="-3.28393775e-16" y1="1" x2="32" y2="1" id="Capline-S"></line>
            <line x1="3.33066907e-16" y1="22" x2="32" y2="22" id="Baseline-M"></line>
            <line x1="3.33066907e-16" y1="10" x2="32" y2="10" id="Capline-M"></line>
        </g>
        <g id="Regular-M" fill="#000000">
            <rect id="Placeholder-32" opacity="0" x="0" y="0" width="32" height="32"></rect>
            <path d="M23.1061507,0.00127685978 L23.7337063,0.0114582514 L24.305381,0.0317354574 C24.396253,0.0359513487 24.4849839,0.0405841781 24.5716673,0.0456320854 L25.0679464,0.0808855798 C25.3834176,0.107688688 25.6691244,0.14107351 25.9310586,0.180920981 L26.3068792,0.245524292 C26.7262831,0.326514913 27.0820577,0.427115081 27.4063148,0.546686691 L27.6772797,0.653807826 C27.7214038,0.672430732 27.7650718,0.691437089 27.8083775,0.710825038 L28.0646125,0.831716941 L28.3166445,0.961677734 C29.4899779,1.58918327 30.4108167,2.51002213 31.0383223,3.68335547 L31.1682831,3.93538754 L31.289175,4.19162246 C31.3085629,4.23492817 31.3275693,4.27859624 31.3461922,4.32272028 L31.4533133,4.59368524 C31.5728849,4.91794227 31.6734851,5.27371694 31.7544757,5.69312079 L31.819079,6.06894143 C31.8589265,6.33087557 31.8923113,6.61658242 31.9191144,6.93205364 L31.9543679,7.42833271 C31.9594158,7.51501609 31.9640487,7.60374698 31.9682645,7.694619 L31.9885417,8.26629368 L31.9987231,8.89384928 L31.9996806,9.05999618 L31.9996806,9.05999618 L32,22.7700133 L31.9949,23.4271945 C31.9932025,23.5317559 31.9910824,23.6338953 31.9885417,23.7337063 L31.9682645,24.305381 C31.9640487,24.396253 31.9594158,24.4849839 31.9543679,24.5716673 L31.9191144,25.0679464 C31.8923113,25.3834176 31.8589265,25.6691244 31.819079,25.9310586 L31.7544757,26.3068792 C31.6734851,26.7262831 31.5728849,27.0820577 31.4533133,27.4063148 L31.3461922,27.6772797 C31.3275693,27.7214038 31.3085629,27.7650718 31.289175,27.8083775 L31.1682831,28.0646125 L31.0383223,28.3166445 C30.4108167,29.4899779 29.4899779,30.4108167 28.3166445,31.0383223 L28.0646125,31.1682831 L27.8083775,31.289175 C27.7650718,31.3085629 27.7214038,31.3275693 27.6772797,31.3461922 L27.4063148,31.4533133 C27.0820577,31.5728849 26.7262831,31.6734851 26.3068792,31.7544757 L25.9310586,31.819079 C25.6691244,31.8589265 25.3834176,31.8923113 25.0679464,31.9191144 L24.5716673,31.9543679 C24.4849839,31.9594158 24.396253,31.9640487 24.305381,31.9682645 L23.7337063,31.9885417 L23.1061507,31.9987231 L22.9400038,31.9996806 L22.9400038,31.9996806 L9.22998672,32 L8.5728055,31.9949 C8.46824411,31.9932025 8.36610471,31.9910824 8.26629368,31.9885417 L7.694619,31.9682645 C7.60374698,31.9640487 7.51501609,31.9594158 7.42833271,31.9543679 L6.93205364,31.9191144 C6.61658242,31.8923113 6.33087557,31.8589265 6.06894143,31.819079 L5.69312079,31.7544757 C5.27371694,31.6734851 4.91794227,31.5728849 4.59368524,31.4533133 L4.32272028,31.3461922 C4.27859624,31.3275693 4.23492817,31.3085629 4.19162246,31.289175 L3.93538754,31.1682831 L3.68335547,31.0383223 C2.51002213,30.4108167 1.58918327,29.4899779 0.961677734,28.3166445 L0.831716941,28.0646125 L0.710825038,27.8083775 C0.691437089,27.7650718 0.672430732,27.7214038 0.653807826,27.6772797 L0.546686691,27.4063148 C0.427115081,27.0820577 0.326514913,26.7262831 0.245524292,26.3068792 L0.180920981,25.9310586 C0.14107351,25.6691244 0.107688688,25.3834176 0.0808855798,25.0679464 L0.0456320854,24.5716673 C0.0405841781,24.4849839 0.0359513487,24.396253 0.0317354574,24.305381 L0.0114582514,23.7337063 L0.00127685978,23.1061507 L0.00127685978,8.89384928 L0.0114582514,8.26629368 L0.0317354574,7.694619 C0.0359513487,7.60374698 0.0405841781,7.51501609 0.0456320854,7.42833271 L0.0808855798,6.93205364 C0.107688688,6.61658242 0.14107351,6.33087557 0.180920981,6.06894143 L0.245524292,5.69312079 C0.326514913,5.27371694 0.427115081,4.91794227 0.546686691,4.59368524 L0.653807826,4.32272028 C0.672430732,4.27859624 0.691437089,4.23492817 0.710825038,4.19162246 L0.831716941,3.93538754 L0.961677734,3.68335547 C1.58918327,2.51002213 2.51002213,1.58918327 3.68335547,0.961677734 L3.93538754,0.831716941 L4.19162246,0.710825038 C4.23492817,0.691437089 4.27859624,0.672430732 4.32272028,0.653807826 L4.59368524,0.546686691 C4.91794227,0.427115081 5.27371694,0.326514913 5.69312079,0.245524292 L6.06894143,0.180920981 C6.33087557,0.14107351 6.61658242,0.107688688 6.93205364,0.0808855798 L7.42833271,0.0456320854 C7.51501609,0.0405841781 7.60374698,0.0359513487 7.694619,0.0317354574 L8.26629368,0.0114582514 L8.89384928,0.00127685978 L23.1061507,0.00127685978 Z M23.0952503,1.00106047 L8.90474973,1.00106047 L8.29904249,1.00976106 L7.74871882,1.02771638 L7.24861227,1.05550467 C5.81845178,1.1541972 4.99647478,1.39344087 4.15495433,1.84349093 C3.15588947,2.37779667 2.37779667,3.15588947 1.84349093,4.15495433 C1.39344087,4.99647478 1.1541972,5.81845178 1.05550467,7.24861227 L1.02771638,7.74871882 L1.00976106,8.29904249 L1.00106047,8.90474973 L1.00106047,23.0952503 L1.00976106,23.7009575 L1.02771638,24.2512812 L1.05550467,24.7513877 C1.1541972,26.1815482 1.39344087,27.0035252 1.84349093,27.8450457 C2.37779667,28.8441105 3.15588947,29.6222033 4.15495433,30.1565091 C4.99647478,30.6065591 5.81845178,30.8458028 7.24861227,30.9444953 L7.74871882,30.9722836 L8.29904249,30.9902389 L8.90474973,30.9989395 L9.22998672,31 L22.7700133,31 L23.4053497,30.9957099 C23.5062651,30.9942639 23.6047651,30.9924442 23.7009575,30.9902389 L24.2512812,30.9722836 L24.7513877,30.9444953 C26.1815482,30.8458028 27.0035252,30.6065591 27.8450457,30.1565091 C28.8441105,29.6222033 29.6222033,28.8441105 30.1565091,27.8450457 C30.6065591,27.0035252 30.8458028,26.1815482 30.9444953,24.7513877 L30.9722836,24.2512812 L30.9902389,23.7009575 L30.9989395,23.0952503 L31,22.7700133 L31,9.22998672 L30.9957099,8.59465025 C30.9942639,8.49373493 30.9924442,8.39523488 30.9902389,8.29904249 L30.9722836,7.74871882 L30.9444953,7.24861227 C30.8458028,5.81845178 30.6065591,4.99647478 30.1565091,4.15495433 C29.6222033,3.15588947 28.8441105,2.37779667 27.8450457,1.84349093 C27.0035252,1.39344087 26.1815482,1.1541972 24.7513877,1.05550467 L24.2512812,1.02771638 L23.7009575,1.00976106 L23.0952503,1.00106047 Z M19.9999958,18.4193188 L23.333329,20.3438182 C23.7458638,20.5819952 23.9999958,21.0221646 23.9999958,21.4985187 L23.9999958,24.5777169 C23.9999958,25.054071 23.7458638,25.4942404 23.333329,25.7324174 L20.666662,27.2720172 C20.2541275,27.5101939 19.7458642,27.5101939 19.3333296,27.2720172 L15.9999975,25.3475173 L19.333329,23.4230178 C19.7458638,23.1848409 19.9999958,22.7446715 19.9999958,22.2683173 L19.9999958,18.4193188 Z M11.9999967,18.4193188 L11.9999975,22.2683173 C11.9999975,22.7446715 12.2541295,23.1848409 12.6666644,23.4230178 L15.9999975,25.3475173 L12.6666637,27.2720172 C12.2541292,27.5101939 11.7458658,27.5101939 11.3333313,27.2720172 L8.66666437,25.7324174 C8.25412949,25.4942404 7.9999975,25.054071 7.9999975,24.5777169 L7.9999975,21.4985187 C7.9999975,21.0221646 8.25412949,20.5819952 8.66666437,20.3438182 L11.9999967,18.4193188 Z M12.6666637,4.94782129 L16.0000025,6.87232117 L12.6666644,8.79682065 C12.2541295,9.03499761 11.9999975,9.47516698 11.9999975,9.95152114 L11.9999975,13.7991887 L15.3333305,11.8760199 C15.7000278,11.6643072 16.1423628,11.6407836 16.5258685,11.805449 L16.6666629,11.8760199 L19.9999967,13.8005197 L19.9999967,18.4193188 L16.6666629,20.3438186 C16.2999655,20.5555313 15.8576306,20.5790549 15.4741249,20.4143895 L15.3333305,20.3438186 L11.9999975,18.4201887 L11.9999975,13.8005197 L8.66666437,11.8760202 C8.25412949,11.6378433 7.9999975,11.1976739 7.9999975,10.7213197 L7.9999975,7.64212163 C7.9999975,7.16576747 8.25412949,6.72559809 8.66666437,6.48742113 L11.3333313,4.94782129 C11.7458658,4.70964454 12.2541292,4.70964454 12.6666637,4.94782129 Z M20.6666687,4.94782129 L23.3333356,6.48742113 C23.7458705,6.72559809 24.0000025,7.16576747 24.0000025,7.64212163 L24.0000025,10.7213197 C24.0000025,11.1976739 23.7458705,11.6378433 23.3333356,11.8760202 L20.0000025,13.8005197 L20.0000025,9.95152114 C20.0000025,9.47516698 19.7458705,9.03499761 19.3333356,8.79682065 L16.0000025,6.87232117 L19.3333363,4.94782129 C19.7458708,4.70964454 20.2541342,4.70964454 20.6666687,4.94782129 Z" id="Icon" fill-rule="nonzero"></path>
        </g>
    </g>
</svg>